<?xml version="1.0" encoding="utf-8"?><svg xml:space="preserve" viewBox="0 0 100 100" y="0" x="0" xmlns="http://www.w3.org/2000/svg" id="圖層_1" version="1.1" width="200px" height="200px" xmlns:xlink="http://www.w3.org/1999/xlink" style="width:100%;height:100%;background-size:initial;background-repeat-y:initial;background-repeat-x:initial;background-position-y:initial;background-position-x:initial;background-origin:initial;background-color:initial;background-clip:initial;background-attachment:initial;animation-play-state:paused" ><g class="ldl-scale" style="transform-origin:50% 50%;transform:rotate(0deg) scale(0.8, 0.8);animation-play-state:paused" ><path fill="#333" d="M77.5 42.161c-.299-1.043-.652-2.08-1.077-3.106s-.908-2.01-1.434-2.958l-6.772 2.58a21.33 21.33 0 0 0-6.895-6.891l2.581-6.772a28.767 28.767 0 0 0-6.064-2.512l-2.964 6.613a21.326 21.326 0 0 0-9.748-.003L42.161 22.5c-1.043.299-2.08.652-3.106 1.077s-2.01.908-2.958 1.434l2.58 6.772a21.33 21.33 0 0 0-6.891 6.895l-6.772-2.581a28.767 28.767 0 0 0-2.512 6.064l6.613 2.964a21.326 21.326 0 0 0-.003 9.748L22.5 57.839c.299 1.043.652 2.08 1.077 3.106s.908 2.01 1.434 2.958l6.772-2.58a21.33 21.33 0 0 0 6.895 6.891l-2.581 6.772a28.767 28.767 0 0 0 6.064 2.512l2.964-6.614c3.143.736 6.472.772 9.748.003l2.964 6.613c1.043-.299 2.08-.652 3.106-1.077s2.01-.908 2.958-1.434l-2.58-6.772a21.33 21.33 0 0 0 6.891-6.895l6.772 2.581a28.767 28.767 0 0 0 2.512-6.064l-6.613-2.964c.736-3.143.772-6.472.003-9.748l6.614-2.966zM55.883 64.202c-7.844 3.249-16.836-.476-20.085-8.319-3.249-7.844.476-16.836 8.319-20.085 7.844-3.249 16.836.476 20.085 8.319 3.249 7.844-.476 16.836-8.319 20.085z" style="fill:rgb(51, 51, 51);animation-play-state:paused" ></path>
<g style="animation-play-state:paused" ><path fill="#f47e60" d="M19.581 90a9.517 9.517 0 0 1-6.774-2.807 9.501 9.501 0 0 1-2.805-6.939 9.502 9.502 0 0 1 3.04-6.838l39.998-35.49c-3.3-6.878-2.288-15.23 2.616-21.021a19.448 19.448 0 0 1 17.847-6.677c.704.108 1.28.598 1.502 1.277a1.884 1.884 0 0 1-.458 1.928l-11.141 11.14a1.93 1.93 0 0 0-.498 1.858l1.965 7.335a1.926 1.926 0 0 0 1.36 1.36l7.334 1.966a1.94 1.94 0 0 0 1.859-.498l11.141-11.142a1.875 1.875 0 0 1 1.333-.554c.941 0 1.729.671 1.87 1.594.941 6.119-1.099 12.373-5.457 16.73a19.298 19.298 0 0 1-13.74 5.69c-2.944 0-5.868-.672-8.506-1.947L26.602 86.939A9.63 9.63 0 0 1 19.581 90zm.259-12.881c-.813 0-1.576.316-2.15.891s-.89 1.337-.89 2.149.316 1.576.89 2.15 1.338.891 2.15.891 1.576-.316 2.15-.891.891-1.338.891-2.15c0-.812-.316-1.575-.891-2.149s-1.337-.891-2.15-.891z" style="fill:rgb(244, 126, 96);animation-play-state:paused" ></path>
<path fill="#fff" d="M70.519 11c.947 0 1.894.072 2.831.216.716.11 1.001.997.489 1.509l-11.14 11.14a2.924 2.924 0 0 0-.757 2.824l1.965 7.335a2.926 2.926 0 0 0 2.068 2.068l7.335 1.965a2.921 2.921 0 0 0 2.825-.757l11.14-11.14a.877.877 0 0 1 .626-.261c.411 0 .81.281.882.745.864 5.615-.851 11.547-5.175 15.872a18.367 18.367 0 0 1-13.033 5.397c-3.009 0-6.019-.731-8.741-2.189l-35.98 40.552A8.556 8.556 0 0 1 19.581 89a8.548 8.548 0 0 1-6.067-2.514c-3.433-3.433-3.337-9.027.211-12.34L54.28 38.163c-3.465-6.524-2.787-14.796 2.139-20.613a18.376 18.376 0 0 1 14.1-6.55M19.84 84.2a4.04 4.04 0 1 0 0-8.08 4.04 4.04 0 0 0 0 8.08M70.519 9a20.446 20.446 0 0 0-15.627 7.258c-4.994 5.897-6.15 14.319-3.069 21.411L12.397 72.651l-.019.017-.019.017a10.496 10.496 0 0 0-3.358 7.553 10.496 10.496 0 0 0 3.098 7.663A10.515 10.515 0 0 0 19.581 91c2.922 0 5.741-1.224 7.734-3.359l.017-.019.017-.019 34.975-39.419a20.597 20.597 0 0 0 8.25 1.729 20.297 20.297 0 0 0 14.447-5.983c4.583-4.583 6.728-11.158 5.738-17.59a2.871 2.871 0 0 0-2.859-2.441c-.77 0-1.494.301-2.04.847l-11.14 11.14a.918.918 0 0 1-.892.239l-7.335-1.965a.926.926 0 0 1-.653-.653l-1.965-7.335a.925.925 0 0 1 .239-.892l11.14-11.14a2.88 2.88 0 0 0 .702-2.946 2.868 2.868 0 0 0-2.301-1.954A20.71 20.71 0 0 0 70.519 9zM19.84 82.2a2.025 2.025 0 0 1-1.443-.598 2.029 2.029 0 0 1-.598-1.443c0-.545.212-1.057.598-1.443.385-.385.898-.598 1.443-.598s1.058.212 1.443.598c.385.385.598.898.598 1.443s-.212 1.058-.598 1.443a2.023 2.023 0 0 1-1.443.598z" style="fill:rgb(255, 255, 255);animation-play-state:paused" ></path></g>
<metadata xmlns:d="https://loading.io/stock/" style="animation-play-state:paused" ><d:name style="animation-play-state:paused" >wrench</d:name>
<d:tags style="animation-play-state:paused" >config,setting,machinary,profile,setup,edit,asembly,wrench,gear</d:tags>
<d:license style="animation-play-state:paused" >by</d:license>
<d:slug style="animation-play-state:paused" >icw4r</d:slug></metadata></g><!-- generated by https://loading.io/ --></svg>